<?xml version="1.0" encoding="iso-8859-1"?>
<!-- Generator: Adobe Illustrator 19.0.0, SVG Export Plug-In . SVG Version: 6.00 Build 0)  -->
<svg version="1.1" id="Capa_1" xmlns="http://www.w3.org/2000/svg" xmlns:xlink="http://www.w3.org/1999/xlink" x="0px" y="0px"
	 viewBox="0 0 512 512" style="enable-background:new 0 0 512 512;" xml:space="preserve">
<g>
	<g>
		<path d="M128.619,148.843c-7.765,0-15.275,2.496-21.696,7.019c-6.379-4.992-13.483-7.509-21.227-7.509
			c-23.168,0-42.731,19.2-42.731,43.392c0,38.293,51.776,78.059,57.685,82.475c1.899,1.429,4.139,2.133,6.379,2.133
			c2.283,0,4.544-0.725,6.464-2.176c5.888-4.48,57.536-44.928,57.408-82.88c0.064-0.448,0.128-1.301,0.128-1.749
			C171.029,167.104,152,148.843,128.619,148.843z M149.696,191.019c0,20.416-26.731,47.403-42.731,60.992
			c-16-13.355-42.688-39.765-42.731-59.264c0.064-0.448,0.064-2.027,0.064-2.475c0-12.139,11.264-20.587,21.397-20.587
			c2.816,0,7.211,0.789,12.608,7.616c4.053,5.099,12.672,5.099,16.725,0c2.091-2.667,6.656-7.104,13.589-7.104
			c10.133,0,21.077,7.403,21.077,19.371l0.021-0.32C149.696,189.888,149.696,190.699,149.696,191.019z"/>
	</g>
</g>
<g>
	<g>
		<path d="M277.333,149.333c-7.787,0-15.296,2.475-21.717,6.997c-7.787-6.037-15.488-7.531-21.205-7.531
			c-23.168,0-42.731,19.221-42.731,43.413c0,38.293,51.776,78.059,57.685,82.475c1.899,1.429,4.139,2.133,6.379,2.133
			c2.283,0,4.565-0.725,6.464-2.176c5.781-4.395,55.552-43.371,57.344-82.731h0.043c0.085-0.491,0.149-1.408,0.149-1.899
			C319.744,167.573,300.715,149.333,277.333,149.333z M298.411,191.488c0,20.416-26.731,47.403-42.731,60.992
			c-15.979-13.333-42.688-39.744-42.731-59.179c0.085-0.64,0.085-1.899,0.064-2.539c0-12.16,11.264-20.608,21.397-20.608
			c2.837,0,7.232,0.789,12.587,7.595c2.027,2.56,5.12,4.053,8.384,4.053c3.264,0,6.336-1.493,8.363-4.053
			c10.752-13.589,34.517-5.781,34.667,12.096C298.389,190.443,298.389,191.083,298.411,191.488z"/>
	</g>
</g>
<g>
	<g>
		<path d="M426.667,149.333c-7.787,0-15.296,2.475-21.717,6.997c-7.787-6.037-15.488-7.531-21.205-7.531
			c-23.168,0-42.731,19.221-42.731,43.413c0,38.293,51.776,78.059,57.685,82.475c1.899,1.429,4.139,2.133,6.379,2.133
			c2.283,0,4.565-0.725,6.464-2.176c5.781-4.395,55.552-43.371,57.344-82.731h0.043c0.085-0.491,0.149-1.408,0.149-1.899
			C469.077,167.573,450.048,149.333,426.667,149.333z M447.744,191.488c0,20.416-26.731,47.403-42.731,60.992
			c-15.979-13.333-42.688-39.744-42.731-59.179c0.085-0.64,0.085-1.899,0.064-2.539c0-12.16,11.264-20.608,21.397-20.608
			c2.837,0,7.232,0.789,12.587,7.595c2.027,2.56,5.12,4.053,8.384,4.053c3.264,0,6.336-1.493,8.363-4.053
			c10.731-13.589,34.517-5.781,34.667,12.096C447.723,190.443,447.723,191.083,447.744,191.488z"/>
	</g>
</g>
<g>
	<g>
		<path d="M437.333,21.333H74.667C33.493,21.333,0,54.827,0,96v213.333C0,350.507,33.493,384,74.667,384h48.235L86.08,476.032
			c-1.749,4.395-0.405,9.429,3.328,12.352c1.941,1.515,4.267,2.283,6.592,2.283c2.176,0,4.352-0.661,6.187-1.984L248.747,384
			h188.587C478.507,384,512,350.507,512,309.333V96C512,54.827,478.507,21.333,437.333,21.333z M490.667,309.355
			c0,29.397-23.936,53.333-53.333,53.333h-192c-2.219,0-4.416,0.683-6.208,1.984l-119.701,85.504l29.141-72.875
			c1.323-3.285,0.917-7.019-1.067-9.941c-1.984-2.923-5.291-4.693-8.832-4.693h-64c-29.397,0-53.333-23.936-53.333-53.333V96
			c0-29.397,23.936-53.333,53.333-53.333v0.021h362.667c29.397,0,53.333,23.936,53.333,53.333V309.355z"/>
	</g>
</g>
<g>
</g>
<g>
</g>
<g>
</g>
<g>
</g>
<g>
</g>
<g>
</g>
<g>
</g>
<g>
</g>
<g>
</g>
<g>
</g>
<g>
</g>
<g>
</g>
<g>
</g>
<g>
</g>
<g>
</g>
</svg>
