<?xml version="1.0" encoding="iso-8859-1"?>
<!-- Generator: Adobe Illustrator 19.0.0, SVG Export Plug-In . SVG Version: 6.00 Build 0)  -->
<svg version="1.1" id="Capa_1" xmlns="http://www.w3.org/2000/svg" xmlns:xlink="http://www.w3.org/1999/xlink" x="0px" y="0px"
	 viewBox="0 0 512 512" style="enable-background:new 0 0 512 512;" xml:space="preserve">
<g>
	<g>
		<path d="M176,146c-5.52,0-10,4.48-10,10s4.48,10,10,10s10-4.48,10-10S181.52,146,176,146z"/>
	</g>
</g>
<g>
	<g>
		<path d="M176,186c-5.52,0-10,4.48-10,10s4.48,10,10,10s10-4.48,10-10S181.52,186,176,186z"/>
	</g>
</g>
<g>
	<g>
		<path d="M482,86H30C13.458,86,0,99.458,0,116v280c0,16.542,13.458,30,30,30c29.055,0,432.236,0,452,0c16.542,0,30-13.458,30-30
			V116C512,99.458,498.542,86,482,86z M126,406H86V266h20v70c0,5.523,4.477,10,10,10h10V406z M206,406h-60v-60h10
			c5.523,0,10-4.477,10-10v-70h20v70c0,5.523,4.477,10,10,10h10V406z M126,326v-60h20v60H126z M286,406h-60v-60h10
			c5.523,0,10-4.477,10-10v-70h20v70c0,5.523,4.477,10,10,10h10V406z M206,326v-60h20v60H206z M366,406h-60v-60h10
			c5.523,0,10-4.477,10-10v-70h20v70c0,5.523,4.477,10,10,10h10V406z M286,326v-60h20v60H286z M426,406h-40v-60h10
			c5.523,0,10-4.477,10-10v-70h20V406z M366,326v-60h20v60H366z M492,396c0,5.514-4.486,10-10,10h-36V256c0-5.523-4.477-10-10-10
			c-109.732,0-250.783,0-360,0c-5.523,0-10,4.477-10,10v150H30c-5.514,0-10-4.486-10-10V116c0-5.514,4.486-10,10-10h452
			c5.514,0,10,4.486,10,10V396z"/>
	</g>
</g>
<g>
	<g>
		<path d="M459,126h-80c-5.523,0-10,4.477-10,10v60c0,5.523,4.477,10,10,10h80c5.523,0,10-4.477,10-10v-60
			C469,130.477,464.523,126,459,126z M449,186h-60v-40h60V186z"/>
	</g>
</g>
<g>
	<g>
		<path d="M276,166h-10v-30c0-5.523-4.477-10-10-10s-10,4.477-10,10v30h-10c-5.523,0-10,4.477-10,10s4.477,10,10,10h10v10
			c0,5.523,4.477,10,10,10s10-4.477,10-10v-10h10c5.523,0,10-4.477,10-10S281.523,166,276,166z"/>
	</g>
</g>
<g>
	<g>
		<path d="M336,146h-10v-10c0-5.523-4.477-10-10-10s-10,4.477-10,10v10h-10c-5.523,0-10,4.477-10,10s4.477,10,10,10h10v30
			c0,5.523,4.477,10,10,10s10-4.477,10-10v-30h10c5.523,0,10-4.477,10-10S341.523,146,336,146z"/>
	</g>
</g>
<g>
	<g>
		<path d="M73,146H53c-5.523,0-10,4.477-10,10s4.477,10,10,10h20c5.523,0,10-4.477,10-10S78.523,146,73,146z"/>
	</g>
</g>
<g>
	<g>
		<path d="M136,146h-20c-5.523,0-10,4.477-10,10s4.477,10,10,10h20c5.523,0,10-4.477,10-10S141.523,146,136,146z"/>
	</g>
</g>
<g>
	<g>
		<path d="M73,186H53c-5.523,0-10,4.477-10,10s4.477,10,10,10h20c5.523,0,10-4.477,10-10S78.523,186,73,186z"/>
	</g>
</g>
<g>
	<g>
		<path d="M136,186h-20c-5.523,0-10,4.477-10,10s4.477,10,10,10h20c5.523,0,10-4.477,10-10S141.523,186,136,186z"/>
	</g>
</g>
<g>
</g>
<g>
</g>
<g>
</g>
<g>
</g>
<g>
</g>
<g>
</g>
<g>
</g>
<g>
</g>
<g>
</g>
<g>
</g>
<g>
</g>
<g>
</g>
<g>
</g>
<g>
</g>
<g>
</g>
</svg>
