<?xml version="1.0" encoding="iso-8859-1"?>
<!-- Generator: Adobe Illustrator 19.0.0, SVG Export Plug-In . SVG Version: 6.00 Build 0)  -->
<svg version="1.1" id="Capa_1" xmlns="http://www.w3.org/2000/svg" xmlns:xlink="http://www.w3.org/1999/xlink" x="0px" y="0px"
	 viewBox="0 0 504.009 504.009" style="enable-background:new 0 0 504.009 504.009;" xml:space="preserve">
<g>
	<g>
		<g>
			<path d="M156.005,262.457V216.01h-16v46.448c0,23.592,11.464,45.856,30.656,59.56l28.696,20.496l9.304-13.016l-28.696-20.496
				C164.957,298.289,156.005,280.889,156.005,262.457z"/>
			<path d="M204.005,464.009c17.648,0,32-14.352,32-32s-14.352-32-32-32s-32,14.352-32,32S186.357,464.009,204.005,464.009z
				 M204.005,416.009c8.824,0,16,7.176,16,16c0,8.824-7.176,16-16,16c-8.824,0-16-7.176-16-16
				C188.005,423.185,195.181,416.009,204.005,416.009z"/>
			<path d="M428.005,64.01h72v-26.52l-1.6-2.136c-19.512-26.048-50.464-38.92-82.808-34.496
				c-28.512,3.928-52.976,22.28-65.848,47.152h-77.136c-6.192-14.104-20.248-24-36.608-24c-10.232,0-19.48,3.976-26.568,10.32
				c-5.616-15.304-20.2-26.32-37.432-26.32c-13.128,0-24.704,6.448-32,16.248c-7.296-9.8-18.872-16.248-32-16.248
				c-17.232,0-31.816,11.016-37.432,26.32c-7.088-6.344-16.336-10.32-26.568-10.32c-22.056,0-40,17.944-40,40v56v40v73.488l40,104
				v166.512h224V346.817l96.664-120.832l-18.84-81.672c-1.424-6.144-4.232-11.6-7.904-16.296h11.848
				c3.392,6.656,7.528,12.944,12.584,18.6c16.68,18.68,40.616,29.392,65.648,29.392c27.92,0,53.576-12.88,70.4-35.344l1.6-2.136
				v-26.52h-72c-4.408,0-8-3.592-8-8v-32C420.005,67.601,423.597,64.01,428.005,64.01z M212.005,64.01c0-13.232,10.768-24,24-24
				s24,10.768,24,24v48h-20c-10.624,0-20.384,3.792-28,10.088V64.01z M148.005,48.01c0-13.232,10.768-24,24-24s24,10.768,24,24v16
				v72v8c0,13.232-10.768,24-24,24s-24-10.768-24-24V48.01z M84.005,64.01v-16c0-13.232,10.768-24,24-24s24,10.768,24,24v96
				c0,13.232-10.768,24-24,24s-24-10.768-24-24V64.01z M20.005,120.01v-56c0-13.232,10.768-24,24-24s24,10.768,24,24v80v16
				c0,13.232-10.768,24-24,24s-24-10.768-24-24V120.01z M252.005,488.009h-192v-48h16v-16h-16v-48h192V488.009z M347.341,222.041
				l-95.336,119.16v18.808h-192v-25.488l-40-104v-38.72c6.704,5.08,14.96,8.208,24,8.208c17.232,0,31.816-11.016,37.432-26.32
				c7.088,6.344,16.336,10.32,26.568,10.32c13.128,0,24.704-6.448,32-16.248c7.296,9.8,18.872,16.248,32,16.248
				c10.632,0,20.24-4.232,27.416-11.024c6.656,15.856,22.336,27.024,40.584,27.024h4v11.056l-43.576,21.792l7.16,14.312
				l52.416-26.216V200.01h24v-16h-44c-15.44,0-28-12.56-28-28s12.56-28,28-28h28h37.216c12.024,0,22.304,8.184,25.008,19.896
				L347.341,222.041z M305.221,112.01h-29.216v-48h67.336c-1.28,4.472-2.224,9.064-2.752,13.768
				c-1.32,11.632-0.224,23.24,2.896,34.232H305.221z M428.005,128.01h56v5.12c-13.776,17.12-34.032,26.88-56,26.88
				c-20.488,0-40.064-8.768-53.72-24.056c-13.84-15.496-20.168-35.52-17.8-56.376c3.624-32.032,29.4-58.472,61.296-62.856
				c3.456-0.48,6.888-0.712,10.288-0.712c21.808,0,42.064,9.632,55.936,26.88v5.12h-56c-13.232,0-24,10.768-24,24v32
				C404.005,117.242,414.773,128.01,428.005,128.01z"/>
			<rect x="92.005" y="424.009" width="64" height="16"/>
		</g>
	</g>
</g>
<g>
</g>
<g>
</g>
<g>
</g>
<g>
</g>
<g>
</g>
<g>
</g>
<g>
</g>
<g>
</g>
<g>
</g>
<g>
</g>
<g>
</g>
<g>
</g>
<g>
</g>
<g>
</g>
<g>
</g>
</svg>
